<svg xmlns="http://www.w3.org/2000/svg" width="77.896" height="44.544" viewBox="0 0 77.896 44.544">
  <g id="Grupo_32" data-name="Grupo 32" transform="translate(-704.896 -517.456)">
    <path id="Caminho_5" data-name="Caminho 5" d="M26.816-44.544a14.836,14.836,0,0,1,6.72,1.28,11.289,11.289,0,0,1,4.64,4.224,11.364,11.364,0,0,1,1.632,6.016,10.7,10.7,0,0,1-1.664,5.792A11.8,11.8,0,0,1,33.6-23.04a12.646,12.646,0,0,1,5.824,4.224,10.683,10.683,0,0,1,2.368,6.784A11.525,11.525,0,0,1,40.1-5.92a12.347,12.347,0,0,1-4.512,4.384A11.906,11.906,0,0,1,32.448-.384,22.085,22.085,0,0,1,27.84,0H8.128V-44.544Z" transform="translate(741 562)" fill="#ffce00"/>
    <path id="Caminho_4" data-name="Caminho 4" d="M8.9,0V-44.544H27.52a17.565,17.565,0,0,1,8.064,1.728,15.437,15.437,0,0,1,6.208,5.664,14.956,14.956,0,0,1,2.3,8.1,15.275,15.275,0,0,1-2.272,8.128,15.147,15.147,0,0,1-6.176,5.7A17.473,17.473,0,0,1,27.52-13.5H20.544V0Z" transform="translate(696 562)" fill="#d746e3"/>
  </g>
</svg>
